<svg id="Layer_1" data-name="Layer 1" xmlns="http://www.w3.org/2000/svg" viewBox="0 0 298.43 57.13"><defs><style>.cls-1{fill:#48c82a;}.cls-2{fill:#fff;}.cls-3{fill:#151614;}</style></defs><title>navbar</title><path class="cls-1" d="M12.75,53.22H43.23a9.44,9.44,0,0,0,9.41-9.42V13.33a9.31,9.31,0,0,0-1.92-5.68L7.08,51.3A9.36,9.36,0,0,0,12.75,53.22Z"/><path class="cls-2" d="M43.23,3.91H12.75a9.44,9.44,0,0,0-9.41,9.42V43.8a9.31,9.31,0,0,0,1.92,5.68L48.9,5.83A9.36,9.36,0,0,0,43.23,3.91Z"/><circle class="cls-1" cx="16.44" cy="17.82" r="3.76"/><circle class="cls-3" cx="40.83" cy="40.39" r="3.76"/><path class="cls-2" d="M80,38.42v-24h2.94V25.11H94.77V14.45h3v24h-3V27.7H82.91V38.42Z"/><path class="cls-2" d="M111.53,38.88q-3.59,0-5.14-1.54c-1-1-1.55-2.75-1.55-5.15V23.54h2.81v8.07a6.26,6.26,0,0,0,.89,3.8,4.52,4.52,0,0,0,6,0,6.26,6.26,0,0,0,.89-3.8V23.54h2.81v8.65c0,2.4-.51,4.12-1.55,5.15S113.93,38.88,111.53,38.88Z"/><path class="cls-2" d="M124.62,38.42V23.54h2.82v1.92a5.31,5.31,0,0,1,2-1.7,6.43,6.43,0,0,1,3-.68,5.94,5.94,0,0,1,3,.72,4.88,4.88,0,0,1,1.95,2.07,7,7,0,0,1,.69,3.22v9.33h-2.81V29.66a4.63,4.63,0,0,0-1-3.21,3.57,3.57,0,0,0-2.82-1.12,4.37,4.37,0,0,0-2.14.5A3.57,3.57,0,0,0,127.44,29v9.43Z"/><path class="cls-2" d="M150.77,38.88a7.07,7.07,0,0,1-3.74-1,7.42,7.42,0,0,1-2.66-2.81,9,9,0,0,1,0-8.14A7.29,7.29,0,0,1,147,24.11a7.16,7.16,0,0,1,3.83-1,6.93,6.93,0,0,1,3.39.84,6.35,6.35,0,0,1,2.43,2.34V13.42h2.82v25h-2.82V35.63A7,7,0,0,1,154.16,38,6.78,6.78,0,0,1,150.77,38.88Zm.76-2.42a5.18,5.18,0,0,0,2.7-.71,4.91,4.91,0,0,0,1.84-1.94,5.75,5.75,0,0,0,.67-2.81,5.81,5.81,0,0,0-.67-2.84,4.94,4.94,0,0,0-1.84-1.95,5.45,5.45,0,0,0-5.38,0A5,5,0,0,0,147,28.16a6.33,6.33,0,0,0,0,5.65,4.94,4.94,0,0,0,1.85,1.94A5.12,5.12,0,0,0,151.53,36.46Z"/><path class="cls-2" d="M166.15,38.42V23.54H169v2.18a5.35,5.35,0,0,1,1.89-2,5,5,0,0,1,2.6-.67,5.8,5.8,0,0,1,1.42.17,4.86,4.86,0,0,1,1.24.44L175,26.07a4.6,4.6,0,0,0-1.05-.39,4.55,4.55,0,0,0-1.12-.15,3.75,3.75,0,0,0-1.85.5,4.26,4.26,0,0,0-1.42,1.31,2.92,2.92,0,0,0-.55,1.71v9.37Z"/><path class="cls-2" d="M187.18,38.88a8.49,8.49,0,0,1-4.2-1,7.9,7.9,0,0,1-3.4-9.92,7.94,7.94,0,0,1,1.7-2.53,7.82,7.82,0,0,1,5.61-2.32A8.33,8.33,0,0,1,191,24a6.88,6.88,0,0,1,2.73,2.67,7.81,7.81,0,0,1,1,4,2.73,2.73,0,0,1,0,.31c0,.07,0,.18-.06.3H181.82a5.31,5.31,0,0,0,.7,2.75,5,5,0,0,0,1.95,1.86,5.89,5.89,0,0,0,2.85.68,5.68,5.68,0,0,0,4.82-2.48l2.07,1.07a7.32,7.32,0,0,1-2.92,2.73A8.66,8.66,0,0,1,187.18,38.88ZM182,29.22h9.88a4.48,4.48,0,0,0-.89-2,4.92,4.92,0,0,0-1.73-1.35,5.44,5.44,0,0,0-2.29-.49,5.62,5.62,0,0,0-2.36.48,4.49,4.49,0,0,0-1.73,1.33A4.59,4.59,0,0,0,182,29.22Z"/><path class="cls-2" d="M206.38,38.88a7.07,7.07,0,0,1-3.74-1A7.42,7.42,0,0,1,200,35.06a9,9,0,0,1,0-8.14,7.29,7.29,0,0,1,2.64-2.81,7.16,7.16,0,0,1,3.83-1,6.93,6.93,0,0,1,3.39.84,6.35,6.35,0,0,1,2.43,2.34V13.42h2.82v25h-2.82V35.63A6.87,6.87,0,0,1,209.77,38,6.78,6.78,0,0,1,206.38,38.88Zm.76-2.42a5.18,5.18,0,0,0,2.7-.71,4.91,4.91,0,0,0,1.84-1.94,5.75,5.75,0,0,0,.67-2.81,5.81,5.81,0,0,0-.67-2.84,4.94,4.94,0,0,0-1.84-1.95,5.45,5.45,0,0,0-5.38,0,5,5,0,0,0-1.85,1.95,6.33,6.33,0,0,0,0,5.65,4.94,4.94,0,0,0,1.85,1.94A5.12,5.12,0,0,0,207.14,36.46Z"/><rect class="cls-1" x="219.75" y="7.35" width="75.35" height="37.87" rx="3.84"/><path class="cls-2" d="M226.83,38.49V15.32h12.1v2.52H228.77l.91-.75v9.8l-.91-1.26h9.53v2.5h-9.53l.91-1.27V38.49Z"/><path class="cls-2" d="M250.37,38.94a8.64,8.64,0,0,1-4.12-1,7.4,7.4,0,0,1-2.9-2.7,7.86,7.86,0,0,1,0-8,7.44,7.44,0,0,1,2.9-2.69,9.23,9.23,0,0,1,8.24,0,7.47,7.47,0,0,1,2.91,2.69,7.32,7.32,0,0,1,1.07,4,7.31,7.31,0,0,1-1.07,4,7.42,7.42,0,0,1-2.91,2.7A8.61,8.61,0,0,1,250.37,38.94Zm0-2.37a5.35,5.35,0,0,0,2.69-.68A4.83,4.83,0,0,0,255,34a5.73,5.73,0,0,0,0-5.45,4.87,4.87,0,0,0-1.88-1.86,5.78,5.78,0,0,0-5.4,0,4.87,4.87,0,0,0-1.88,1.86,5.73,5.73,0,0,0,0,5.45,4.83,4.83,0,0,0,1.88,1.87A5.4,5.4,0,0,0,250.39,36.57Z"/><path class="cls-2" d="M263.74,38.49V14.34h2.72V38.49Z"/><path class="cls-2" d="M279,38.94a6.92,6.92,0,0,1-3.62-1,7.1,7.1,0,0,1-2.56-2.71,8,8,0,0,1-.95-3.95,8.08,8.08,0,0,1,.93-3.92,7.06,7.06,0,0,1,2.56-2.72,7,7,0,0,1,3.7-1,6.59,6.59,0,0,1,3.27.82,6.1,6.1,0,0,1,2.36,2.26V14.33h2.72V38.49h-2.72v-2.7a6.61,6.61,0,0,1-2.42,2.31A6.53,6.53,0,0,1,279,38.94Zm.73-2.35a4.93,4.93,0,0,0,2.61-.68A4.78,4.78,0,0,0,284.12,34a5.53,5.53,0,0,0,.65-2.72,5.62,5.62,0,0,0-.65-2.75,4.74,4.74,0,0,0-1.78-1.88,5.29,5.29,0,0,0-5.19,0,4.77,4.77,0,0,0-1.79,1.88,6,6,0,0,0,0,5.47,4.78,4.78,0,0,0,1.78,1.87A4.92,4.92,0,0,0,279.73,36.59Z"/></svg>